<svg xmlns="http://www.w3.org/2000/svg" xmlns:xlink="http://www.w3.org/1999/xlink" width="500" zoomAndPan="magnify" viewBox="0 0 375 374.999991" height="500" preserveAspectRatio="xMidYMid meet" version="1.0"><defs><clipPath id="4914a1ed63"><path d="M 224 125 L 372.390625 125 L 372.390625 249 L 224 249 Z M 224 125 " clip-rule="nonzero"/></clipPath><clipPath id="768361d113"><path d="M 167 43.40625 L 291 43.40625 L 291 167 L 167 167 Z M 167 43.40625 " clip-rule="nonzero"/></clipPath><clipPath id="be494d8c9e"><path d="M 85 43.40625 L 209 43.40625 L 209 167 L 85 167 Z M 85 43.40625 " clip-rule="nonzero"/></clipPath></defs><g clip-path="url(#4914a1ed63)"><path fill="#7264ff" d="M 329.253906 187.289062 L 310.710938 168.746094 L 292.167969 187.289062 L 310.710938 205.832031 Z M 310.710938 125.609375 C 311.796875 125.609375 312.878906 126.023438 313.710938 126.851562 L 371.148438 184.289062 C 371.941406 185.085938 372.386719 186.164062 372.386719 187.289062 C 372.386719 188.417969 371.941406 189.492188 371.148438 190.289062 L 313.710938 247.726562 C 312.050781 249.382812 309.367188 249.382812 307.710938 247.726562 L 269.71875 209.738281 L 269.28125 210.179688 C 267.621094 211.832031 264.9375 211.832031 263.28125 210.179688 C 261.621094 208.519531 261.621094 205.835938 263.28125 204.175781 L 307.710938 159.746094 C 309.367188 158.089844 312.050781 158.089844 313.710938 159.746094 L 338.253906 184.289062 C 339.050781 185.085938 339.496094 186.164062 339.496094 187.289062 C 339.496094 188.417969 339.050781 189.492188 338.253906 190.289062 L 313.710938 214.832031 C 312.050781 216.488281 309.367188 216.492188 307.710938 214.832031 L 286.167969 193.289062 L 275.71875 203.734375 L 310.710938 238.722656 L 362.144531 187.289062 L 310.710938 135.855469 L 231.742188 214.820312 C 230.085938 216.476562 227.398438 216.476562 225.742188 214.820312 C 224.085938 213.164062 224.085938 210.476562 225.742188 208.824219 L 307.710938 126.855469 C 308.539062 126.023438 309.621094 125.609375 310.710938 125.609375 " fill-opacity="1" fill-rule="nonzero"/></g><g clip-path="url(#768361d113)"><path fill="#7264ff" d="M 187.761719 117.503906 C 188.847656 117.503906 189.933594 117.917969 190.761719 118.75 L 231.746094 159.734375 C 233.402344 161.390625 233.402344 164.078125 231.746094 165.734375 C 230.089844 167.390625 227.402344 167.390625 225.746094 165.734375 L 184.761719 124.75 C 183.105469 123.09375 183.105469 120.40625 184.761719 118.75 C 185.589844 117.917969 186.675781 117.503906 187.761719 117.503906 Z M 247.289062 105.296875 L 228.746094 86.753906 L 210.203125 105.296875 L 228.746094 123.84375 Z M 228.746094 76.507812 C 229.871094 76.507812 230.949219 76.957031 231.746094 77.753906 L 256.289062 102.300781 C 257.945312 103.953125 257.945312 106.644531 256.289062 108.300781 L 231.746094 132.84375 C 230.15625 134.433594 227.335938 134.433594 225.746094 132.84375 L 201.199219 108.300781 C 199.546875 106.644531 199.546875 103.953125 201.199219 102.300781 L 225.746094 77.753906 C 226.539062 76.957031 227.621094 76.507812 228.746094 76.507812 Z M 228.746094 43.617188 C 229.871094 43.617188 230.949219 44.0625 231.746094 44.859375 L 289.179688 102.300781 C 290.835938 103.953125 290.835938 106.644531 289.183594 108.300781 L 248.214844 149.277344 C 246.558594 150.933594 243.871094 150.933594 242.210938 149.277344 C 240.554688 147.617188 240.554688 144.933594 242.210938 143.273438 L 280.179688 105.296875 L 228.746094 53.863281 L 174.308594 108.300781 C 172.652344 109.957031 169.96875 109.957031 168.308594 108.300781 C 166.648438 106.644531 166.648438 103.953125 168.308594 102.300781 L 225.746094 44.859375 C 226.539062 44.0625 227.621094 43.617188 228.746094 43.617188 " fill-opacity="1" fill-rule="nonzero"/></g><path fill="#7264ff" d="M 187.746094 199.472656 C 188.832031 199.472656 189.917969 199.886719 190.746094 200.714844 L 231.75 241.722656 C 233.40625 243.378906 233.40625 246.066406 231.75 247.722656 C 230.09375 249.378906 227.40625 249.378906 225.75 247.722656 L 184.746094 206.710938 C 183.085938 205.058594 183.085938 202.367188 184.746094 200.714844 C 185.574219 199.886719 186.660156 199.472656 187.746094 199.472656 Z M 286.1875 183.039062 C 287.273438 183.039062 288.359375 183.457031 289.1875 184.285156 C 290.847656 185.941406 290.847656 188.628906 289.1875 190.289062 L 248.179688 231.292969 C 246.523438 232.949219 243.839844 232.949219 242.179688 231.292969 C 240.523438 229.632812 240.523438 226.949219 242.179688 225.289062 L 283.1875 184.285156 C 284.015625 183.457031 285.101562 183.039062 286.1875 183.039062 Z M 247.296875 187.285156 L 228.75 168.742188 L 210.207031 187.285156 L 228.75 205.828125 Z M 228.75 158.496094 C 229.835938 158.496094 230.921875 158.910156 231.75 159.738281 L 256.296875 184.28125 C 257.09375 185.078125 257.539062 186.160156 257.539062 187.285156 C 257.539062 188.410156 257.09375 189.492188 256.296875 190.289062 L 231.75 214.832031 C 230.09375 216.488281 227.40625 216.488281 225.75 214.832031 L 201.207031 190.285156 C 199.546875 188.628906 199.546875 185.941406 201.207031 184.285156 L 225.75 159.738281 C 226.578125 158.910156 227.664062 158.496094 228.75 158.496094 Z M 212.324219 142.035156 C 213.410156 142.035156 214.496094 142.449219 215.324219 143.277344 C 216.980469 144.933594 216.980469 147.625 215.324219 149.28125 L 174.316406 190.289062 C 172.660156 191.941406 169.972656 191.941406 168.316406 190.285156 C 166.660156 188.628906 166.660156 185.941406 168.316406 184.28125 L 209.324219 143.277344 C 210.152344 142.449219 211.238281 142.035156 212.324219 142.035156 Z M 228.75 125.605469 C 229.835938 125.605469 230.921875 126.023438 231.75 126.851562 L 272.726562 167.820312 C 274.382812 169.480469 274.382812 172.167969 272.726562 173.824219 C 271.066406 175.480469 268.382812 175.480469 266.722656 173.824219 L 225.75 132.851562 C 224.09375 131.195312 224.09375 128.507812 225.75 126.851562 C 226.578125 126.023438 227.664062 125.605469 228.75 125.605469 " fill-opacity="1" fill-rule="nonzero"/><path fill="#7264ff" d="M 228.75 158.496094 C 229.835938 158.496094 230.921875 158.910156 231.75 159.738281 C 233.40625 161.394531 233.40625 164.082031 231.75 165.738281 L 190.777344 206.710938 C 189.121094 208.367188 186.433594 208.367188 184.777344 206.710938 C 183.121094 205.054688 183.121094 202.367188 184.777344 200.710938 L 225.75 159.738281 C 226.578125 158.910156 227.664062 158.496094 228.75 158.496094 Z M 206.320312 146.273438 L 187.777344 127.734375 L 169.234375 146.273438 L 187.777344 164.816406 Z M 187.777344 117.488281 C 188.863281 117.488281 189.949219 117.90625 190.777344 118.730469 L 215.324219 143.273438 C 216.117188 144.070312 216.566406 145.148438 216.566406 146.273438 C 216.566406 147.402344 216.117188 148.480469 215.324219 149.277344 L 190.777344 173.820312 C 189.980469 174.617188 188.902344 175.0625 187.777344 175.0625 C 186.648438 175.0625 185.574219 174.617188 184.777344 173.820312 L 160.234375 149.277344 C 158.574219 147.617188 158.574219 144.929688 160.234375 143.273438 L 184.777344 118.730469 C 185.605469 117.90625 186.691406 117.488281 187.777344 117.488281 Z M 204.21875 101.039062 C 205.304688 101.039062 206.390625 101.453125 207.21875 102.28125 L 233.796875 128.855469 C 235.453125 130.511719 235.453125 133.199219 233.796875 134.855469 C 232.140625 136.511719 229.453125 136.511719 227.792969 134.855469 L 201.21875 108.285156 C 199.558594 106.625 199.558594 103.941406 201.21875 102.28125 C 202.046875 101.453125 203.132812 101.039062 204.21875 101.039062 Z M 187.777344 84.597656 C 188.863281 84.597656 189.949219 85.011719 190.777344 85.839844 C 192.4375 87.5 192.4375 90.183594 190.777344 91.839844 L 150.496094 132.121094 C 148.839844 133.777344 146.15625 133.777344 144.496094 132.121094 C 142.839844 130.460938 142.839844 127.777344 144.496094 126.117188 L 184.777344 85.839844 C 185.605469 85.011719 186.691406 84.597656 187.777344 84.597656 " fill-opacity="1" fill-rule="nonzero"/><g clip-path="url(#be494d8c9e)"><path fill="#7264ff" d="M 165.316406 105.304688 L 146.773438 86.761719 L 128.230469 105.304688 L 146.773438 123.851562 Z M 146.773438 76.519531 C 147.859375 76.519531 148.945312 76.933594 149.773438 77.765625 L 174.320312 102.304688 C 175.976562 103.960938 175.976562 106.648438 174.320312 108.304688 L 152.777344 129.851562 L 163.21875 140.292969 L 201.210938 102.304688 C 202.867188 100.648438 205.550781 100.648438 207.210938 102.304688 C 208.867188 103.960938 208.867188 106.648438 207.210938 108.304688 L 166.238281 149.28125 C 166.027344 149.492188 165.792969 149.675781 165.550781 149.835938 C 163.90625 150.925781 161.664062 150.742188 160.214844 149.292969 L 119.226562 108.304688 C 118.433594 107.511719 117.984375 106.433594 117.984375 105.304688 C 117.984375 104.183594 118.433594 103.101562 119.226562 102.304688 L 143.773438 77.761719 C 144.601562 76.933594 145.6875 76.519531 146.773438 76.519531 Z M 146.773438 43.628906 C 147.859375 43.628906 148.945312 44.042969 149.773438 44.871094 L 190.761719 85.859375 C 192.421875 87.515625 192.421875 90.199219 190.761719 91.859375 C 189.101562 93.515625 186.417969 93.515625 184.761719 91.859375 L 146.773438 53.875 L 95.335938 105.304688 L 149.773438 159.742188 C 151.433594 161.402344 151.433594 164.085938 149.773438 165.746094 C 148.117188 167.402344 145.433594 167.402344 143.773438 165.746094 L 86.335938 108.304688 C 85.539062 107.511719 85.09375 106.433594 85.09375 105.304688 C 85.09375 104.183594 85.539062 103.101562 86.335938 102.304688 L 143.773438 44.871094 C 144.601562 44.042969 145.6875 43.628906 146.773438 43.628906 " fill-opacity="1" fill-rule="nonzero"/></g><path fill="#7264ff" d="M 187.746094 248.554688 C 188.832031 248.554688 189.917969 248.96875 190.746094 249.796875 C 192.402344 251.453125 192.402344 254.140625 190.746094 255.796875 L 174.28125 272.261719 C 172.625 273.917969 169.9375 273.917969 168.28125 272.261719 C 166.625 270.609375 166.625 267.917969 168.28125 266.261719 L 184.746094 249.796875 C 185.570312 248.96875 186.660156 248.554688 187.746094 248.554688 Z M 247.261719 269.261719 L 228.714844 250.71875 L 210.175781 269.261719 L 228.714844 287.808594 Z M 228.714844 240.472656 C 229.84375 240.472656 230.921875 240.921875 231.714844 241.71875 L 256.261719 266.261719 C 257.917969 267.917969 257.917969 270.609375 256.261719 272.261719 L 231.714844 296.808594 C 230.125 298.398438 227.308594 298.398438 225.714844 296.808594 L 201.171875 272.261719 C 199.515625 270.609375 199.515625 267.917969 201.171875 266.261719 L 225.714844 241.71875 C 226.511719 240.921875 227.589844 240.472656 228.714844 240.472656 Z M 228.714844 207.582031 C 229.800781 207.582031 230.886719 207.996094 231.714844 208.824219 L 289.152344 266.261719 C 289.949219 267.058594 290.394531 268.136719 290.394531 269.261719 C 290.394531 270.390625 289.949219 271.46875 289.152344 272.261719 L 231.714844 329.699219 C 230.058594 331.355469 227.375 331.355469 225.714844 329.699219 L 184.726562 288.707031 C 183.066406 287.050781 183.066406 284.363281 184.726562 282.707031 C 186.382812 281.050781 189.070312 281.050781 190.726562 282.707031 L 228.714844 320.695312 L 280.152344 269.261719 L 225.714844 214.828125 C 224.058594 213.167969 224.058594 210.484375 225.714844 208.824219 C 226.546875 207.996094 227.628906 207.582031 228.714844 207.582031 " fill-opacity="1" fill-rule="nonzero"/><path fill="#7264ff" d="M 228.730469 240.457031 C 229.816406 240.457031 230.902344 240.871094 231.730469 241.703125 C 233.390625 243.355469 233.390625 246.046875 231.730469 247.699219 L 190.746094 288.6875 C 189.085938 290.34375 186.402344 290.34375 184.746094 288.6875 C 183.085938 287.027344 183.085938 284.34375 184.746094 282.683594 L 225.730469 241.699219 C 226.558594 240.871094 227.644531 240.457031 228.730469 240.457031 Z M 206.285156 228.253906 L 187.746094 209.710938 L 169.203125 228.253906 L 187.746094 246.796875 Z M 187.746094 199.464844 C 188.832031 199.464844 189.917969 199.878906 190.746094 200.707031 L 215.289062 225.253906 C 216.945312 226.910156 216.945312 229.597656 215.289062 231.253906 L 190.746094 255.796875 C 189.152344 257.390625 186.335938 257.390625 184.746094 255.796875 L 160.199219 231.253906 C 158.542969 229.597656 158.542969 226.910156 160.199219 225.253906 L 184.746094 200.707031 C 185.574219 199.878906 186.660156 199.464844 187.746094 199.464844 " fill-opacity="1" fill-rule="nonzero"/><path fill="#7264ff" d="M 105.675781 199.410156 C 106.765625 199.410156 107.847656 199.824219 108.679688 200.65625 L 149.738281 241.71875 C 151.398438 243.378906 151.398438 246.0625 149.738281 247.722656 C 148.082031 249.375 145.398438 249.378906 143.738281 247.722656 L 102.675781 206.65625 C 101.019531 205 101.019531 202.3125 102.675781 200.65625 C 103.507812 199.824219 104.59375 199.410156 105.675781 199.410156 Z M 165.28125 187.285156 L 146.742188 168.738281 L 128.195312 187.285156 L 146.742188 205.828125 Z M 146.742188 158.496094 C 147.824219 158.496094 148.914062 158.910156 149.738281 159.738281 L 174.285156 184.28125 C 175.945312 185.941406 175.945312 188.625 174.285156 190.285156 L 149.738281 214.828125 C 148.148438 216.421875 145.332031 216.421875 143.738281 214.832031 L 119.195312 190.285156 C 118.398438 189.488281 117.949219 188.40625 117.949219 187.285156 C 117.949219 186.15625 118.398438 185.078125 119.195312 184.28125 L 143.738281 159.738281 C 144.570312 158.910156 145.652344 158.496094 146.742188 158.496094 Z M 130.328125 142.015625 C 131.410156 142.015625 132.5 142.429688 133.324219 143.257812 C 134.984375 144.917969 134.984375 147.605469 133.324219 149.261719 L 92.304688 190.28125 C 90.644531 191.941406 87.960938 191.941406 86.304688 190.28125 C 84.648438 188.625 84.648438 185.9375 86.304688 184.28125 L 127.324219 143.257812 C 128.15625 142.429688 129.238281 142.015625 130.328125 142.015625 Z M 146.742188 125.601562 C 147.824219 125.601562 148.914062 126.019531 149.738281 126.847656 L 190.746094 167.855469 C 192.402344 169.511719 192.402344 172.199219 190.746094 173.855469 C 189.085938 175.507812 186.402344 175.511719 184.746094 173.855469 L 143.738281 132.847656 C 142.082031 131.191406 142.082031 128.507812 143.738281 126.847656 C 144.570312 126.019531 145.652344 125.601562 146.742188 125.601562 " fill-opacity="1" fill-rule="nonzero"/><path fill="#7264ff" d="M 165.226562 269.167969 L 146.683594 250.628906 L 128.140625 269.167969 L 146.683594 287.710938 Z M 146.683594 240.382812 C 147.808594 240.382812 148.890625 240.828125 149.683594 241.625 L 174.230469 266.167969 C 175.882812 267.828125 175.882812 270.511719 174.230469 272.167969 L 149.683594 296.714844 C 148.09375 298.308594 145.273438 298.308594 143.683594 296.714844 L 119.136719 272.167969 C 117.480469 270.511719 117.480469 267.828125 119.136719 266.167969 L 143.683594 241.625 C 144.476562 240.828125 145.558594 240.382812 146.683594 240.382812 Z M 130.238281 223.9375 C 131.324219 223.9375 132.410156 224.351562 133.238281 225.179688 C 134.894531 226.839844 134.894531 229.523438 133.238281 231.183594 L 95.25 269.167969 L 146.683594 320.605469 L 201.121094 266.167969 C 202.773438 264.511719 205.460938 264.511719 207.117188 266.167969 C 208.777344 267.828125 208.777344 270.511719 207.117188 272.167969 L 149.683594 329.609375 C 148.09375 331.199219 145.273438 331.199219 143.683594 329.609375 L 86.246094 272.167969 C 85.453125 271.375 85.003906 270.296875 85.003906 269.167969 C 85.003906 268.042969 85.453125 266.964844 86.246094 266.167969 L 127.238281 225.179688 C 128.066406 224.351562 129.152344 223.9375 130.238281 223.9375 Z M 146.683594 207.492188 C 147.769531 207.492188 148.855469 207.90625 149.683594 208.734375 L 190.746094 249.796875 C 192.40625 251.453125 192.40625 254.140625 190.746094 255.796875 C 189.089844 257.453125 186.402344 257.453125 184.746094 255.796875 L 143.683594 214.738281 C 142.023438 213.078125 142.023438 210.394531 143.683594 208.734375 C 144.511719 207.90625 145.597656 207.492188 146.683594 207.492188 " fill-opacity="1" fill-rule="nonzero"/><path fill="#7264ff" d="M 83.25 187.191406 L 64.707031 168.648438 L 46.164062 187.191406 L 64.707031 205.734375 Z M 64.707031 158.402344 C 65.792969 158.402344 66.878906 158.816406 67.707031 159.644531 L 92.253906 184.191406 C 93.046875 184.984375 93.496094 186.0625 93.496094 187.191406 C 93.496094 188.316406 93.046875 189.394531 92.253906 190.1875 L 67.707031 214.734375 C 66.046875 216.390625 63.367188 216.390625 61.707031 214.734375 L 37.160156 190.1875 C 35.507812 188.535156 35.507812 185.847656 37.160156 184.191406 L 61.707031 159.644531 C 62.535156 158.816406 63.621094 158.402344 64.707031 158.402344 Z M 64.707031 125.511719 C 65.792969 125.511719 66.878906 125.925781 67.707031 126.753906 L 108.769531 167.816406 C 110.425781 169.476562 110.425781 172.160156 108.769531 173.820312 C 107.109375 175.476562 104.429688 175.476562 102.773438 173.820312 L 64.707031 135.757812 L 13.269531 187.191406 L 64.707031 238.625 L 122.441406 180.890625 C 124.101562 179.238281 126.78125 179.234375 128.4375 180.894531 C 130.097656 182.550781 130.097656 185.234375 128.4375 186.894531 L 67.707031 247.628906 C 66.910156 248.417969 65.832031 248.867188 64.707031 248.867188 C 63.578125 248.867188 62.5 248.417969 61.707031 247.628906 L 4.273438 190.1875 C 2.613281 188.535156 2.613281 185.847656 4.273438 184.191406 L 61.707031 126.753906 C 62.535156 125.925781 63.621094 125.511719 64.707031 125.511719 " fill-opacity="1" fill-rule="nonzero"/></svg>